<?xml version="1.0" encoding="utf-8"?><svg xmlns="http://www.w3.org/2000/svg" xmlns:xlink="http://www.w3.org/1999/xlink"><symbol viewBox="0 0 18 18" id="arrow" xmlns="http://www.w3.org/2000/svg"><g clip-path="url(#aclip0)"><path d="M8.298 4l-8.01 8.01a.978.978 0 00-.288.696c0 .264.102.51.288.696l.59.59a.986.986 0 001.392 0l6.726-6.726L15.73 14a.978.978 0 00.696.287.979.979 0 00.697-.288l.59-.59a.978.978 0 00.287-.696.977.977 0 00-.288-.696L9.695 4a.979.979 0 00-.698-.287.979.979 0 00-.7.287z"/></g><defs><clipPath id="aclip0"><path transform="rotate(-90 9 9)" d="M0 0h18v18H0z"/></clipPath></defs></symbol><symbol viewBox="0 0 46 46" id="like" xmlns="http://www.w3.org/2000/svg"><path d="M33.781 2.695c-2.496 0-4.784.791-6.802 2.351-1.933 1.496-3.221 3.4-3.979 4.786-.758-1.385-2.046-3.29-3.98-4.786-2.017-1.56-4.305-2.35-6.801-2.35C5.253 2.695 0 8.392 0 15.947 0 24.11 6.553 29.695 16.475 38.15a571.533 571.533 0 015.579 4.798 1.435 1.435 0 001.892 0c1.985-1.735 3.895-3.363 5.58-4.8C39.447 29.697 46 24.112 46 15.95c0-7.556-5.253-13.254-12.219-13.254z"/></symbol><symbol viewBox="0 0 78 78" id="logo" xmlns="http://www.w3.org/2000/svg"><path d="M63.056 28.881l-8.844.014-26.41 24.897H10.034V36.46l24.2-22.61-16.242.05L0 30.663V64.15h34.028l29.014-27.58.014-7.688z"/><path d="M43.972 13.849L14.96 41.432l-.014 7.686 8.843-.013L50.2 24.208h17.766V41.54l-24.2 22.611 16.242-.05L78 47.338v-33.49H43.972z"/></symbol></svg>